<?xml version="1.0" encoding="UTF-8" standalone="no"?>
<!-- Created with Inkscape (http://www.inkscape.org/) -->

<svg
   xmlns:dc="http://purl.org/dc/elements/1.1/"
   xmlns:cc="http://creativecommons.org/ns#"
   xmlns:rdf="http://www.w3.org/1999/02/22-rdf-syntax-ns#"
   xmlns:svg="http://www.w3.org/2000/svg"
   xmlns="http://www.w3.org/2000/svg"
   xmlns:sodipodi="http://sodipodi.sourceforge.net/DTD/sodipodi-0.dtd"
   xmlns:inkscape="http://www.inkscape.org/namespaces/inkscape"
   width="1200"
   height="900"
   viewBox="0 0 1200 900.00001"
   id="svg3394"
   version="1.1"
   inkscape:version="0.91 r13725"
   sodipodi:docname="CloudTile2.svg"
   inkscape:export-filename="/home/trevor/Projects/virginia/media/CloudLayer2.png"
   inkscape:export-xdpi="90"
   inkscape:export-ydpi="90">
  <defs
     id="defs3396" />
  <sodipodi:namedview
     id="base"
     pagecolor="#ffffff"
     bordercolor="#666666"
     borderopacity="1.0"
     inkscape:pageopacity="0.0"
     inkscape:pageshadow="2"
     inkscape:zoom="0.35"
     inkscape:cx="626.63488"
     inkscape:cy="520"
     inkscape:document-units="px"
     inkscape:current-layer="layer1"
     showgrid="false"
     units="px"
     inkscape:window-width="1375"
     inkscape:window-height="876"
     inkscape:window-x="65"
     inkscape:window-y="24"
     inkscape:window-maximized="1" />
  <metadata
     id="metadata3399">
    <rdf:RDF>
      <cc:Work
         rdf:about="">
        <dc:format>image/svg+xml</dc:format>
        <dc:type
           rdf:resource="http://purl.org/dc/dcmitype/StillImage" />
        <dc:title></dc:title>
      </cc:Work>
    </rdf:RDF>
  </metadata>
  <g
     inkscape:label="Layer 1"
     inkscape:groupmode="layer"
     id="layer1"
     transform="translate(0,-152.36216)">
    <g
       id="g3432"
       style="opacity:0.6">
      <g
         id="g4253"
         style="opacity:0.85"
         transform="translate(-20,8.5714286)">
        <path
           style="opacity:1;fill:#00ff00;fill-opacity:1;fill-rule:nonzero;stroke:none;stroke-width:2;stroke-linejoin:bevel;stroke-miterlimit:4;stroke-dasharray:none;stroke-opacity:1"
           d="m 125.71424,263.79074 362.85724,0 c 12.66283,0 22.8571,10.19427 22.8571,22.8571 l 0,54.2858 c 0,12.66283 -10.19427,22.8571 -22.8571,22.8571 l -362.85724,0 c -12.66283,0 -22.8571,-10.19427 -22.8571,-22.8571 l 0,-54.2858 c 0,-12.66283 10.19427,-22.8571 22.8571,-22.8571 z"
           id="rect3402"
           inkscape:connector-curvature="0" />
        <path
           style="opacity:1;fill:#00ff00;fill-opacity:1;fill-rule:nonzero;stroke:none;stroke-width:2;stroke-linejoin:bevel;stroke-miterlimit:4;stroke-dasharray:none;stroke-opacity:1"
           d="m 248.57138,318.07645 151.42865,0 c 12.66284,0 22.8571,10.19426 22.8571,22.8571 l 0,80.00008 c 0,12.66284 -10.19426,22.8571 -22.8571,22.8571 l -151.42865,0 c -12.66283,0 -22.8571,-10.19426 -22.8571,-22.8571 l 0,-80.00008 c 0,-12.66284 10.19427,-22.8571 22.8571,-22.8571 z"
           id="rect3404"
           inkscape:connector-curvature="0" />
        <path
           style="opacity:1;fill:#00ff00;fill-opacity:1;fill-rule:nonzero;stroke:none;stroke-width:2;stroke-linejoin:bevel;stroke-miterlimit:4;stroke-dasharray:none;stroke-opacity:1"
           d="m 437.14281,220.93359 74.2858,0 c 12.66283,0 22.8571,10.19427 22.8571,22.8571 l 0,48.57152 c 0,12.66283 -10.19427,22.8571 -22.8571,22.8571 l -74.2858,0 c -12.66284,0 -22.8571,-10.19427 -22.8571,-22.8571 l 0,-48.57152 c 0,-12.66283 10.19426,-22.8571 22.8571,-22.8571 z"
           id="rect3406"
           inkscape:connector-curvature="0" />
      </g>
    </g>
    <g
       id="g3437"
       style="opacity:0.6"
       transform="translate(-82.857143,-88.571429)">
      <g
         id="g4247"
         style="opacity:0.85">
        <path
           id="rect3414"
           d="m 637.14289,720.93359 328.5714,0 c 25.32572,0 45.71431,20.38858 45.71431,45.7143 l 0,45.71426 c 0,25.32572 -20.38859,45.7143 -45.71431,45.7143 l -328.5714,0 c -25.32572,0 -45.7143,-20.38858 -45.7143,-45.7143 l 0,-45.71426 c 0,-25.32572 20.38858,-45.7143 45.7143,-45.7143 z"
           style="opacity:1;fill:#ffff00;fill-opacity:1;fill-rule:nonzero;stroke:none;stroke-width:2;stroke-linejoin:bevel;stroke-miterlimit:4;stroke-dasharray:none;stroke-opacity:1"
           inkscape:connector-curvature="0" />
        <path
           id="rect3416"
           d="m 937.14289,815.2193 185.71421,0 c 25.3258,0 45.7143,20.38858 45.7143,45.7143 l 0,19.99997 c 0,25.32573 -20.3885,45.7143 -45.7143,45.7143 l -185.71421,0 c -25.32572,0 -45.7143,-20.38857 -45.7143,-45.7143 l 0,-19.99997 c 0,-25.32572 20.38858,-45.7143 45.7143,-45.7143 z"
           style="opacity:1;fill:#ffff00;fill-opacity:1;fill-rule:nonzero;stroke:none;stroke-width:2;stroke-linejoin:bevel;stroke-miterlimit:4;stroke-dasharray:none;stroke-opacity:1"
           inkscape:connector-curvature="0" />
        <path
           id="rect3428"
           d="m 845.7143,906.64789 245.7143,0 c 14.2457,0 25.7143,11.46858 25.7143,25.7143 l 0,48.5714 c 0,14.24572 -11.4686,25.71431 -25.7143,25.71431 l -245.7143,0 C 831.46858,1006.6479 820,995.17931 820,980.93359 l 0,-48.5714 c 0,-14.24572 11.46858,-25.7143 25.7143,-25.7143 z"
           style="opacity:1;fill:#ffff00;fill-opacity:1;fill-rule:nonzero;stroke:none;stroke-width:2;stroke-linejoin:bevel;stroke-miterlimit:4;stroke-dasharray:none;stroke-opacity:1"
           inkscape:connector-curvature="0" />
        <path
           id="rect3430"
           d="m 514.28574,823.79077 148.5714,0 c 14.24572,0 25.7143,11.46858 25.7143,25.7143 l 0,74.28569 c 0,14.24572 -11.46858,25.7143 -25.7143,25.7143 l -148.5714,0 c -14.24572,0 -25.7143,-11.46858 -25.7143,-25.7143 l 0,-74.28569 c 0,-14.24572 11.46858,-25.7143 25.7143,-25.7143 z"
           style="opacity:1;fill:#ffff00;fill-opacity:1;fill-rule:nonzero;stroke:none;stroke-width:2;stroke-linejoin:bevel;stroke-miterlimit:4;stroke-dasharray:none;stroke-opacity:1"
           inkscape:connector-curvature="0" />
      </g>
    </g>
  </g>
</svg>
