<?xml version="1.0" encoding="UTF-8" standalone="no"?>
<!-- Created with Inkscape (http://www.inkscape.org/) -->

<svg
   xmlns:dc="http://purl.org/dc/elements/1.1/"
   xmlns:cc="http://creativecommons.org/ns#"
   xmlns:rdf="http://www.w3.org/1999/02/22-rdf-syntax-ns#"
   xmlns:svg="http://www.w3.org/2000/svg"
   xmlns="http://www.w3.org/2000/svg"
   xmlns:sodipodi="http://sodipodi.sourceforge.net/DTD/sodipodi-0.dtd"
   xmlns:inkscape="http://www.inkscape.org/namespaces/inkscape"
   width="1200"
   height="900"
   viewBox="0 0 1200 900.00001"
   id="svg2"
   version="1.1"
   inkscape:version="0.91 r13725"
   sodipodi:docname="CloudTile0.svg"
   inkscape:export-filename="/home/trevor/Projects/virginia/media/CloudLayer0.png"
   inkscape:export-xdpi="90"
   inkscape:export-ydpi="90">
  <defs
     id="defs4" />
  <sodipodi:namedview
     id="base"
     pagecolor="#ffffff"
     bordercolor="#666666"
     borderopacity="1.0"
     inkscape:pageopacity="0.0"
     inkscape:pageshadow="2"
     inkscape:zoom="0.35"
     inkscape:cx="-12.423271"
     inkscape:cy="405.71429"
     inkscape:document-units="px"
     inkscape:current-layer="layer1"
     showgrid="false"
     units="px"
     inkscape:object-nodes="false"
     inkscape:window-width="1375"
     inkscape:window-height="876"
     inkscape:window-x="65"
     inkscape:window-y="24"
     inkscape:window-maximized="1" />
  <metadata
     id="metadata7">
    <rdf:RDF>
      <cc:Work
         rdf:about="">
        <dc:format>image/svg+xml</dc:format>
        <dc:type
           rdf:resource="http://purl.org/dc/dcmitype/StillImage" />
        <dc:title />
      </cc:Work>
    </rdf:RDF>
  </metadata>
  <g
     inkscape:label="Layer 1"
     inkscape:groupmode="layer"
     id="layer1"
     transform="translate(0,-152.36216)">
    <g
       id="g4187"
       style="opacity:1"
       transform="translate(297.14286,20)">
      <path
         style="opacity:1;fill:#e61e1a;fill-opacity:1;fill-rule:nonzero;stroke:none;stroke-width:2;stroke-linejoin:bevel;stroke-miterlimit:4;stroke-dasharray:none;stroke-opacity:1"
         d="m 308.57143,232.36217 282.85714,0 c 26.90857,0 48.57143,21.66286 48.57143,48.57143 0,26.90857 -21.66286,48.57143 -48.57143,48.57143 l -282.85714,0 C 281.66286,329.50503 260,307.84217 260,280.9336 c 0,-26.90857 21.66286,-48.57143 48.57143,-48.57143 z"
         id="rect4179"
         inkscape:connector-curvature="0" />
      <path
         style="opacity:1;fill:#e61e1a;fill-opacity:1;fill-rule:nonzero;stroke:none;stroke-width:2;stroke-linejoin:bevel;stroke-miterlimit:4;stroke-dasharray:none;stroke-opacity:1"
         d="m 479.99996,286.64789 240.00005,0 c 26.90856,0 48.5714,21.66284 48.5714,48.5714 l 0,14.28577 c 0,26.90856 -21.66284,48.5714 -48.5714,48.5714 l -240.00005,0 c -26.90856,0 -48.5714,-21.66284 -48.5714,-48.5714 l 0,-14.28577 c 0,-26.90856 21.66284,-48.5714 48.5714,-48.5714 z"
         id="rect4183"
         inkscape:connector-curvature="0" />
      <path
         style="opacity:1;fill:#e61e1a;fill-opacity:1;fill-rule:nonzero;stroke:none;stroke-width:2;stroke-linejoin:bevel;stroke-miterlimit:4;stroke-dasharray:none;stroke-opacity:1"
         d="m 425.71425,295.2193 65.71435,0 c 26.90856,0 48.5714,21.66284 48.5714,48.5714 l 0,57.14292 c 0,26.90856 -21.66284,48.5714 -48.5714,48.5714 l -65.71435,0 c -26.90855,0 -48.5714,-21.66284 -48.5714,-48.5714 l 0,-57.14292 c 0,-26.90856 21.66285,-48.5714 48.5714,-48.5714 z"
         id="rect4185"
         inkscape:connector-curvature="0" />
    </g>
    <g
       id="g4227"
       style="opacity:1"
       transform="translate(-417.14286,85.714277)">
      <path
         style="opacity:1;fill:#800080;fill-opacity:1;fill-rule:nonzero;stroke:none;stroke-width:2;stroke-linejoin:bevel;stroke-miterlimit:4;stroke-dasharray:none;stroke-opacity:1"
         d="m 630.00002,686.64789 385.71418,0 c 15.0372,0 27.1429,12.10573 27.1429,27.1429 l 0,88.57134 c 0,15.03717 -12.1057,27.14291 -27.1429,27.14291 l -385.71418,0 c -15.03717,0 -27.1429,-12.10574 -27.1429,-27.14291 l 0,-88.57134 c 0,-15.03717 12.10573,-27.1429 27.1429,-27.1429 z"
         id="rect4217"
         inkscape:connector-curvature="0" />
      <path
         style="opacity:1;fill:#800080;fill-opacity:1;fill-rule:nonzero;stroke:none;stroke-width:2;stroke-linejoin:bevel;stroke-miterlimit:4;stroke-dasharray:none;stroke-opacity:1"
         d="m 504.28575,792.36218 259.99991,0 c 15.03716,0 27.1429,12.10574 27.1429,27.1429 l 0,14.28563 c 0,15.03717 -12.10574,27.1429 -27.1429,27.1429 l -259.99991,0 c -15.03716,0 -27.1429,-12.10573 -27.1429,-27.1429 l 0,-14.28563 c 0,-15.03716 12.10574,-27.1429 27.1429,-27.1429 z"
         id="rect4221"
         inkscape:connector-curvature="0" />
      <path
         style="opacity:1;fill:#800080;fill-opacity:1;fill-rule:nonzero;stroke:none;stroke-width:2;stroke-linejoin:bevel;stroke-miterlimit:4;stroke-dasharray:none;stroke-opacity:1"
         d="m 978.57149,780.93359 114.28561,0 c 15.0372,0 27.1429,12.10574 27.1429,27.1429 l 0,25.7142 c 0,15.03717 -12.1057,27.1429 -27.1429,27.1429 l -114.28561,0 c -15.03717,0 -27.1429,-12.10573 -27.1429,-27.1429 l 0,-25.7142 c 0,-15.03716 12.10573,-27.1429 27.1429,-27.1429 z"
         id="rect4223"
         inkscape:connector-curvature="0" />
      <path
         style="opacity:1;fill:#800080;fill-opacity:1;fill-rule:nonzero;stroke:none;stroke-width:2;stroke-linejoin:bevel;stroke-miterlimit:4;stroke-dasharray:none;stroke-opacity:1"
         d="m 790.00002,612.36218 105.7142,0 c 15.03716,0 27.1429,12.10574 27.1429,27.1429 l 0,77.14278 c 0,15.03716 -12.10574,27.1429 -27.1429,27.1429 l -105.7142,0 c -15.03717,0 -27.1429,-12.10574 -27.1429,-27.1429 l 0,-77.14278 c 0,-15.03716 12.10573,-27.1429 27.1429,-27.1429 z"
         id="rect4225"
         inkscape:connector-curvature="0" />
    </g>
  </g>
</svg>
