<?xml version="1.0" encoding="UTF-8" standalone="no"?>
<!-- Created with Inkscape (http://www.inkscape.org/) -->

<svg
   xmlns:dc="http://purl.org/dc/elements/1.1/"
   xmlns:cc="http://creativecommons.org/ns#"
   xmlns:rdf="http://www.w3.org/1999/02/22-rdf-syntax-ns#"
   xmlns:svg="http://www.w3.org/2000/svg"
   xmlns="http://www.w3.org/2000/svg"
   xmlns:sodipodi="http://sodipodi.sourceforge.net/DTD/sodipodi-0.dtd"
   xmlns:inkscape="http://www.inkscape.org/namespaces/inkscape"
   width="1200"
   height="900"
   viewBox="0 0 1200 900.00001"
   id="svg3394"
   version="1.1"
   inkscape:version="0.91 r13725"
   sodipodi:docname="CloudTile2.svg"
   inkscape:export-filename="/home/trevor/Projects/virginia/media/CloudLayer2.png"
   inkscape:export-xdpi="90"
   inkscape:export-ydpi="90">
  <defs
     id="defs3396" />
  <sodipodi:namedview
     id="base"
     pagecolor="#ffffff"
     bordercolor="#666666"
     borderopacity="1.0"
     inkscape:pageopacity="0"
     inkscape:pageshadow="2"
     inkscape:zoom="0.49497475"
     inkscape:cx="375.28798"
     inkscape:cy="301.46115"
     inkscape:document-units="px"
     inkscape:current-layer="layer1"
     showgrid="false"
     units="px"
     inkscape:window-width="1375"
     inkscape:window-height="876"
     inkscape:window-x="65"
     inkscape:window-y="24"
     inkscape:window-maximized="1"
     inkscape:snap-text-baseline="true" />
  <metadata
     id="metadata3399">
    <rdf:RDF>
      <cc:Work
         rdf:about="">
        <dc:format>image/svg+xml</dc:format>
        <dc:type
           rdf:resource="http://purl.org/dc/dcmitype/StillImage" />
        <dc:title></dc:title>
      </cc:Work>
    </rdf:RDF>
  </metadata>
  <g
     inkscape:label="Layer 1"
     inkscape:groupmode="layer"
     id="layer1"
     transform="translate(0,-152.36216)">
    <g
       id="g4180">
      <path
         inkscape:connector-curvature="0"
         id="rect3402"
         d="m 105.71424,272.36217 362.85724,0 c 12.66283,0 22.8571,10.19427 22.8571,22.8571 l 0,54.2858 c 0,12.66283 -10.19427,22.8571 -22.8571,22.8571 l -362.85724,0 c -12.66283,0 -22.8571,-10.19427 -22.8571,-22.8571 l 0,-54.2858 c 0,-12.66283 10.19427,-22.8571 22.8571,-22.8571 z"
         style="opacity:1;fill:#00ff00;fill-opacity:1;fill-rule:nonzero;stroke:none;stroke-width:2;stroke-linejoin:bevel;stroke-miterlimit:4;stroke-dasharray:none;stroke-opacity:1" />
      <path
         inkscape:connector-curvature="0"
         id="rect3404"
         d="m 228.57138,326.64788 151.42865,0 c 12.66284,0 22.8571,10.19426 22.8571,22.8571 l 0,80.00008 c 0,12.66284 -10.19426,22.8571 -22.8571,22.8571 l -151.42865,0 c -12.66283,0 -22.8571,-10.19426 -22.8571,-22.8571 l 0,-80.00008 c 0,-12.66284 10.19427,-22.8571 22.8571,-22.8571 z"
         style="opacity:1;fill:#00ff00;fill-opacity:1;fill-rule:nonzero;stroke:none;stroke-width:2;stroke-linejoin:bevel;stroke-miterlimit:4;stroke-dasharray:none;stroke-opacity:1" />
      <path
         inkscape:connector-curvature="0"
         id="rect3406"
         d="m 417.14281,229.50502 74.2858,0 c 12.66283,0 22.8571,10.19427 22.8571,22.8571 l 0,48.57152 c 0,12.66283 -10.19427,22.8571 -22.8571,22.8571 l -74.2858,0 c -12.66284,0 -22.8571,-10.19427 -22.8571,-22.8571 l 0,-48.57152 c 0,-12.66283 10.19426,-22.8571 22.8571,-22.8571 z"
         style="opacity:1;fill:#00ff00;fill-opacity:1;fill-rule:nonzero;stroke:none;stroke-width:2;stroke-linejoin:bevel;stroke-miterlimit:4;stroke-dasharray:none;stroke-opacity:1" />
    </g>
    <g
       id="g4185">
      <path
         inkscape:connector-curvature="0"
         style="opacity:1;fill:#ffff00;fill-opacity:1;fill-rule:nonzero;stroke:none;stroke-width:2;stroke-linejoin:bevel;stroke-miterlimit:4;stroke-dasharray:none;stroke-opacity:1"
         d="m 554.28575,632.36216 328.5714,0 c 25.32572,0 45.71431,20.38858 45.71431,45.7143 l 0,45.71426 c 0,25.32572 -20.38859,45.7143 -45.71431,45.7143 l -328.5714,0 c -25.32572,0 -45.7143,-20.38858 -45.7143,-45.7143 l 0,-45.71426 c 0,-25.32572 20.38858,-45.7143 45.7143,-45.7143 z"
         id="rect3414" />
      <path
         inkscape:connector-curvature="0"
         style="opacity:1;fill:#ffff00;fill-opacity:1;fill-rule:nonzero;stroke:none;stroke-width:2;stroke-linejoin:bevel;stroke-miterlimit:4;stroke-dasharray:none;stroke-opacity:1"
         d="m 854.28575,726.64787 185.71425,0 c 25.3258,0 45.7143,20.38858 45.7143,45.7143 l 0,19.99997 c 0,25.32573 -20.3885,45.7143 -45.7143,45.7143 l -185.71425,0 c -25.32572,0 -45.7143,-20.38857 -45.7143,-45.7143 l 0,-19.99997 c 0,-25.32572 20.38858,-45.7143 45.7143,-45.7143 z"
         id="rect3416" />
      <path
         inkscape:connector-curvature="0"
         style="opacity:1;fill:#ffff00;fill-opacity:1;fill-rule:nonzero;stroke:none;stroke-width:2;stroke-linejoin:bevel;stroke-miterlimit:4;stroke-dasharray:none;stroke-opacity:1"
         d="m 762.85716,818.07646 245.71434,0 c 14.2457,0 25.7143,11.46858 25.7143,25.7143 l 0,48.5714 c 0,14.24572 -11.4686,25.71431 -25.7143,25.71431 l -245.71434,0 c -14.24572,0 -25.7143,-11.46859 -25.7143,-25.71431 l 0,-48.5714 c 0,-14.24572 11.46858,-25.7143 25.7143,-25.7143 z"
         id="rect3428" />
      <path
         inkscape:connector-curvature="0"
         style="opacity:1;fill:#ffff00;fill-opacity:1;fill-rule:nonzero;stroke:none;stroke-width:2;stroke-linejoin:bevel;stroke-miterlimit:4;stroke-dasharray:none;stroke-opacity:1"
         d="m 431.4286,735.21934 148.5714,0 c 14.24572,0 25.7143,11.46858 25.7143,25.7143 l 0,74.28569 c 0,14.24572 -11.46858,25.7143 -25.7143,25.7143 l -148.5714,0 c -14.24572,0 -25.7143,-11.46858 -25.7143,-25.7143 l 0,-74.28569 c 0,-14.24572 11.46858,-25.7143 25.7143,-25.7143 z"
         id="rect3430" />
    </g>
  </g>
</svg>
