<?xml version="1.0" encoding="UTF-8" standalone="no"?>
<!-- Created with Inkscape (http://www.inkscape.org/) -->

<svg
   xmlns:dc="http://purl.org/dc/elements/1.1/"
   xmlns:cc="http://creativecommons.org/ns#"
   xmlns:rdf="http://www.w3.org/1999/02/22-rdf-syntax-ns#"
   xmlns:svg="http://www.w3.org/2000/svg"
   xmlns="http://www.w3.org/2000/svg"
   xmlns:sodipodi="http://sodipodi.sourceforge.net/DTD/sodipodi-0.dtd"
   xmlns:inkscape="http://www.inkscape.org/namespaces/inkscape"
   width="210mm"
   height="297mm"
   viewBox="0 0 744.09448819 1052.3622047"
   id="svg4366"
   version="1.1"
   inkscape:version="0.91 r13725"
   sodipodi:docname="PlayerDraft0.svg">
  <defs
     id="defs4368" />
  <sodipodi:namedview
     id="base"
     pagecolor="#ffffff"
     bordercolor="#666666"
     borderopacity="1.0"
     inkscape:pageopacity="0.0"
     inkscape:pageshadow="2"
     inkscape:zoom="2.8"
     inkscape:cx="379.45967"
     inkscape:cy="848.75654"
     inkscape:document-units="px"
     inkscape:current-layer="g4220"
     showgrid="false"
     inkscape:window-width="1375"
     inkscape:window-height="876"
     inkscape:window-x="65"
     inkscape:window-y="24"
     inkscape:window-maximized="1" />
  <metadata
     id="metadata4371">
    <rdf:RDF>
      <cc:Work
         rdf:about="">
        <dc:format>image/svg+xml</dc:format>
        <dc:type
           rdf:resource="http://purl.org/dc/dcmitype/StillImage" />
        <dc:title></dc:title>
      </cc:Work>
    </rdf:RDF>
  </metadata>
  <g
     inkscape:label="Layer 1"
     inkscape:groupmode="layer"
     id="layer1">
    <g
       id="g4220"
       transform="translate(20,-32.5)">
      <path
         inkscape:connector-curvature="0"
         id="path4460"
         d="m 310.11909,181.6833 c -8.01683,-1.05417 -11.28288,-5.49165 -10.70618,-14.54617 0.47848,-7.51249 3.35803,-13.72784 8.89403,-19.19729 11.55833,-11.41939 30.19012,-11.30984 41.71579,0.24528 6.07673,6.09225 8.57354,12.12762 8.57171,20.71978 -0.001,4.76351 -0.16068,5.8559 -1.11959,7.65988 -1.26777,2.38502 -3.00486,3.76907 -5.9395,4.73235 -2.31875,0.76113 -36.16478,1.07671 -41.41626,0.38617 z"
         style="opacity:0;fill:#008080;fill-opacity:1;fill-rule:nonzero;stroke:none;stroke-width:2;stroke-linejoin:bevel;stroke-miterlimit:4;stroke-dasharray:none;stroke-opacity:1" />
      <path
         inkscape:connector-curvature="0"
         d="m 368.34854,218.33334 a 34.345188,34.850262 0 0 1 -34.34519,34.85026 34.345188,34.850262 0 0 1 -34.34518,-34.85026 34.345188,34.850262 0 0 1 34.34518,-34.85027 34.345188,34.850262 0 0 1 34.34519,34.85027 z"
         style="opacity:1;fill:#808080;fill-opacity:1;fill-rule:nonzero;stroke:none;stroke-width:2;stroke-linejoin:bevel;stroke-miterlimit:4;stroke-dasharray:none;stroke-opacity:1"
         id="path5015" />
      <g
         id="g5234">
        <g
           id="g5227">
          <path
             sodipodi:nodetypes="sssss"
             inkscape:connector-curvature="0"
             id="path5017"
             d="m 324.76405,240.19956 c 0,3.34736 -3.16582,2.52539 -7.07107,2.52539 -3.90525,0 -8.08123,-6.2491 -8.08122,-9.59645 0,-3.34735 4.17598,-2.52538 8.08122,-2.52538 3.90524,0 7.07107,6.24909 7.07107,9.59644 z"
             style="opacity:1;fill:#1a1a1a;fill-opacity:1;fill-rule:nonzero;stroke:none;stroke-width:2;stroke-linejoin:bevel;stroke-miterlimit:4;stroke-dasharray:none;stroke-opacity:1" />
          <path
             sodipodi:nodetypes="sssss"
             inkscape:connector-curvature="0"
             id="path5017-4"
             d="m 343.95694,239.69447 c 0,3.34736 3.16582,2.52539 7.07107,2.52539 3.90525,0 8.08123,-6.2491 8.08122,-9.59645 0,-3.34735 -4.17598,-2.52538 -8.08122,-2.52538 -3.90524,0 -7.07107,6.24909 -7.07107,9.59644 z"
             style="opacity:1;fill:#1a1a1a;fill-opacity:1;fill-rule:nonzero;stroke:none;stroke-width:2;stroke-linejoin:bevel;stroke-miterlimit:4;stroke-dasharray:none;stroke-opacity:1" />
          <path
             sodipodi:nodetypes="cccccccccccccc"
             inkscape:connector-curvature="0"
             id="path5043"
             d="m 323.57532,216.77433 -7.65998,-9.74996 -2.40405,3.1176 3.89799,7.24182 -5.38726,-4.50499 -2.70639,6.3787 1.05843,-6.94329 -1.84326,-1.11304 2.63648,-0.88346 1.46996,-4.34335 -3.82368,-11.2883 2.77014,-2.84546 3.54614,10.51306 z"
             inkscape:transform-center-y="-0.51259123"
             inkscape:transform-center-x="2.6652164"
             style="opacity:1;fill:#800000;fill-opacity:1;fill-rule:nonzero;stroke:none;stroke-width:2;stroke-linejoin:bevel;stroke-miterlimit:4;stroke-dasharray:none;stroke-opacity:1" />
        </g>
      </g>
      <path
         sodipodi:nodetypes="csscssssccssssscsssccssscccccssssc"
         inkscape:connector-curvature="0"
         id="path3415"
         d="m 271.07144,202.71936 c 14.15818,-4.57567 13.6598,15.85562 16.53823,15.11265 11.34019,-2.92709 6.61635,-19.77947 -10.23422,-21.86148 -8.17838,-1.0105 -11.2747,-22.098 -11.2747,-22.098 -0.76123,3.90252 9.74107,14.00408 14.61256,15.27915 1.42161,0.37209 4.82206,-3.61625 3.78803,-6.23547 -1.13949,-2.88636 -10.71524,-6.57449 -10.71524,-6.57449 -3.21937,-1.16432 12.30848,-1.2672 14.73432,2.23715 2.81866,4.07179 3.764,12.18616 5.19563,11.18085 1.88777,-17.60206 -8.6908,-22.49214 -14.64804,-31.67383 9.91278,4.3514 23.0223,4.68109 22.37687,11.30648 -1.22739,12.59916 5.12337,20.79845 13.77801,3.71428 0.33066,-0.65272 -7.15491,-2.01641 -4.26964,-10.87955 2.26964,-6.97203 -6.74758,-13.84821 -6.74758,-13.84821 -0.72042,-1.04166 5.82869,1.12006 10.33509,3.46524 1.25487,0.65305 1.50643,-8.6251 1.50643,-8.6251 0,0 1.86561,12.71035 2.78706,13.53437 2.09152,1.87046 3.64699,2.55231 3.95657,4.75831 1.13552,8.09153 7.53945,-3.47467 6.81032,-8.43684 -0.59835,-4.07209 0.18435,-8.82032 0.0678,-14.18706 14.10631,19.99681 10.32448,46.70612 12.45051,11.39719 5.78783,-6.60096 -0.5081,7.15843 6.81495,11.36361 9.17188,5.26685 2.88791,22.63555 3.1751,23.25512 5.74144,12.3863 24.83818,17.69738 18.21185,1.3785 l -8.45014,-20.81044 7.29553,8.63789 c 0,0 -1.08795,-8.12011 -0.37758,-12.11399 6.37151,22.34024 12.07033,23.82181 4.35188,44.18196 l 4.12274,8.83743 c -13.98361,57.63864 -58.15924,42.3368 -92.67441,15.7371 -2.43582,-1.87721 -4.07705,-5.95492 -5.45235,-9.76486 -1.21469,-3.365 -10.79337,2.20741 -13.38601,-6.85217 -0.46422,-1.62216 13.38601,6.85217 13.13118,-1.37458 -0.25972,-8.38463 -6.6916,-9.01266 -7.81075,-10.04121 z"
         inkscape:transform-center-y="10.888166"
         inkscape:transform-center-x="1.9642659"
         style="opacity:1;fill:#00ffff;fill-opacity:0.36538463;fill-rule:nonzero;stroke:none;stroke-width:2;stroke-linejoin:bevel;stroke-miterlimit:4;stroke-dasharray:none;stroke-opacity:1" />
    </g>
  </g>
</svg>
