<?xml version="1.0" encoding="UTF-8" standalone="no"?>
<!-- Created with Inkscape (http://www.inkscape.org/) -->

<svg
   xmlns:dc="http://purl.org/dc/elements/1.1/"
   xmlns:cc="http://creativecommons.org/ns#"
   xmlns:rdf="http://www.w3.org/1999/02/22-rdf-syntax-ns#"
   xmlns:svg="http://www.w3.org/2000/svg"
   xmlns="http://www.w3.org/2000/svg"
   xmlns:sodipodi="http://sodipodi.sourceforge.net/DTD/sodipodi-0.dtd"
   xmlns:inkscape="http://www.inkscape.org/namespaces/inkscape"
   width="210mm"
   height="297mm"
   viewBox="0 0 744.09448819 1052.3622047"
   id="svg4366"
   version="1.1"
   inkscape:version="0.92.2 5c3e80d, 2017-08-06"
   sodipodi:docname="PlayerDraft0.svg">
  <defs
     id="defs4368" />
  <sodipodi:namedview
     id="base"
     pagecolor="#ffffff"
     bordercolor="#666666"
     borderopacity="1.0"
     inkscape:pageopacity="0.0"
     inkscape:pageshadow="2"
     inkscape:zoom="1.7060832"
     inkscape:cx="426.88678"
     inkscape:cy="792.44223"
     inkscape:document-units="px"
     inkscape:current-layer="g4220"
     showgrid="false"
     inkscape:window-width="1440"
     inkscape:window-height="790"
     inkscape:window-x="0"
     inkscape:window-y="1"
     inkscape:window-maximized="1" />
  <metadata
     id="metadata4371">
    <rdf:RDF>
      <cc:Work
         rdf:about="">
        <dc:format>image/svg+xml</dc:format>
        <dc:type
           rdf:resource="http://purl.org/dc/dcmitype/StillImage" />
        <dc:title />
      </cc:Work>
    </rdf:RDF>
  </metadata>
  <g
     inkscape:label="Layer 1"
     inkscape:groupmode="layer"
     id="layer1">
    <g
       id="g4220"
       transform="translate(20,-32.5)">
      <path
         inkscape:connector-curvature="0"
         id="path4460"
         d="m 310.11909,181.6833 c -8.01683,-1.05417 -11.28288,-5.49165 -10.70618,-14.54617 0.47848,-7.51249 3.35803,-13.72784 8.89403,-19.19729 11.55833,-11.41939 30.19012,-11.30984 41.71579,0.24528 6.07673,6.09225 8.57354,12.12762 8.57171,20.71978 -0.001,4.76351 -0.16068,5.8559 -1.11959,7.65988 -1.26777,2.38502 -3.00486,3.76907 -5.9395,4.73235 -2.31875,0.76113 -36.16478,1.07671 -41.41626,0.38617 z"
         style="opacity:0;fill:#008080;fill-opacity:1;fill-rule:nonzero;stroke:none;stroke-width:2;stroke-linejoin:bevel;stroke-miterlimit:4;stroke-dasharray:none;stroke-opacity:1" />
      <path
         style="fill:#ff6600;stroke-width:2.70662022"
         d="m 388.87963,314.02881 c 0,45.56656 -24.2082,53.04128 -54.07052,53.04129 -29.86233,0 -58.08839,-7.47472 -58.08839,-53.04129 0,-45.56656 27.98578,-48.26706 57.84811,-48.26706 29.86232,10e-6 54.31079,2.7005 54.3108,48.26706 z"
         id="path3779"
         inkscape:connector-curvature="0"
         sodipodi:nodetypes="sssss" />
      <flowRoot
         xml:space="preserve"
         id="flowRoot3800"
         style="font-style:normal;font-weight:normal;font-size:40px;line-height:1.25;font-family:sans-serif;letter-spacing:0px;word-spacing:0px;fill:#000000;fill-opacity:1;stroke:none"
         transform="matrix(0.9375,0,0,0.9375,-20,32.5)"><flowRegion
           id="flowRegion3802"><rect
             id="rect3804"
             width="44.285713"
             height="41.785713"
             x="239.64285"
             y="233.23398" /></flowRegion><flowPara
           id="flowPara3806">x</flowPara></flowRoot>      <g
         id="g3935">
        <ellipse
           ry="9.7098207"
           rx="9.8772316"
           cy="294.14627"
           cx="350.63699"
           id="path3798"
           style="fill:#0000ff;stroke-width:0.9375" />
        <text
           id="text3810"
           y="304.19089"
           x="339.08566"
           style="font-style:normal;font-variant:normal;font-weight:normal;font-stretch:normal;font-size:37.5px;line-height:1.25;font-family:'.Al Bayan PUA';-inkscape-font-specification:'.Al Bayan PUA';letter-spacing:0px;word-spacing:0px;fill:#000000;fill-opacity:1;stroke:none;stroke-width:0.9375"
           xml:space="preserve"><tspan
             style="font-style:normal;font-variant:normal;font-weight:normal;font-stretch:normal;font-family:'.Al Bayan PUA';-inkscape-font-specification:'.Al Bayan PUA';stroke-width:0.9375"
             y="304.19089"
             x="339.08566"
             id="tspan3808"
             sodipodi:role="line">x</tspan></text>
      </g>
      <path
         style="fill:#ff6600;stroke-width:0.9375"
         d="m 304.25597,268.41995 3.29703,34.06927 -67.03952,9.89108 c -13.40912,-36.70164 35.68814,-34.91055 63.74249,-43.96035 z"
         id="rect3814"
         inkscape:connector-curvature="0"
         sodipodi:nodetypes="cccc" />
      <path
         style="fill:#000000;stroke-width:0.9375"
         d=""
         id="path3897"
         inkscape:connector-curvature="0" />
      <path
         sodipodi:nodetypes="cccc"
         inkscape:connector-curvature="0"
         id="path3930"
         d="m 365.87559,269.97419 -3.29703,34.06927 67.03952,9.89108 C 443.0272,277.2329 393.92994,279.02399 365.87559,269.97419 Z"
         style="fill:#ff6600;stroke-width:0.9375" />
      <g
         id="g4765"
         transform="translate(90.118701,42.311829)">
        <g
           transform="translate(-91.123166,-20.993469)"
           id="g3796">
          <path
             inkscape:connector-curvature="0"
             d="m 367.73057,218.52947 a 34.345188,34.850262 0 0 1 -34.34519,34.85026 34.345188,34.850262 0 0 1 -34.34518,-34.85026 34.345188,34.850262 0 0 1 34.34518,-34.85027 34.345188,34.850262 0 0 1 34.34519,34.85027 z"
             style="opacity:1;fill:#808080;fill-opacity:1;fill-rule:nonzero;stroke:none;stroke-width:2;stroke-linejoin:bevel;stroke-miterlimit:4;stroke-dasharray:none;stroke-opacity:1"
             id="path5015" />
          <g
             id="g3787">
            <g
               id="g5234">
              <g
                 id="g5227">
                <path
                   style="opacity:1;fill:#1a1a1a;fill-opacity:1;fill-rule:nonzero;stroke:none;stroke-width:2;stroke-linejoin:bevel;stroke-miterlimit:4;stroke-dasharray:none;stroke-opacity:1"
                   d="m 324.76405,240.19956 c 0,3.34736 -3.16582,2.52539 -7.07107,2.52539 -3.90525,0 -8.08123,-6.2491 -8.08122,-9.59645 0,-3.34735 4.17598,-2.52538 8.08122,-2.52538 3.90524,0 7.07107,6.24909 7.07107,9.59644 z"
                   id="path5017"
                   inkscape:connector-curvature="0"
                   sodipodi:nodetypes="sssss" />
                <path
                   style="opacity:1;fill:#1a1a1a;fill-opacity:1;fill-rule:nonzero;stroke:none;stroke-width:2;stroke-linejoin:bevel;stroke-miterlimit:4;stroke-dasharray:none;stroke-opacity:1"
                   d="m 343.95694,239.69447 c 0,3.34736 3.16582,2.52539 7.07107,2.52539 3.90525,0 8.08123,-6.2491 8.08122,-9.59645 0,-3.34735 -4.17598,-2.52538 -8.08122,-2.52538 -3.90524,0 -7.07107,6.24909 -7.07107,9.59644 z"
                   id="path5017-4"
                   inkscape:connector-curvature="0"
                   sodipodi:nodetypes="sssss" />
                <path
                   style="opacity:1;fill:#800000;fill-opacity:1;fill-rule:nonzero;stroke:none;stroke-width:2;stroke-linejoin:bevel;stroke-miterlimit:4;stroke-dasharray:none;stroke-opacity:1"
                   inkscape:transform-center-x="2.6652164"
                   inkscape:transform-center-y="-0.51259123"
                   d="m 323.57532,216.77433 -7.65998,-9.74996 -2.40405,3.1176 3.89799,7.24182 -5.38726,-4.50499 -2.70639,6.3787 1.05843,-6.94329 -1.84326,-1.11304 2.63648,-0.88346 1.46996,-4.34335 -3.82368,-11.2883 2.77014,-2.84546 3.54614,10.51306 z"
                   id="path5043"
                   inkscape:connector-curvature="0"
                   sodipodi:nodetypes="cccccccccccccc" />
              </g>
            </g>
          </g>
        </g>
        <path
           inkscape:connector-curvature="0"
           id="path3946"
           d="m 233.59863,240.2224 c -9.46462,-1.9422 -18.22117,-6.45141 -24.44266,-12.58684 -22.52999,-22.21828 -16.52265,-58.16875 12.07881,-72.28468 8.26066,-4.07696 11.00469,-4.66697 21.70542,-4.66697 10.68715,0 13.41099,0.58614 21.70542,4.67072 9.89473,4.87266 16.45522,11.42733 21.15601,21.13724 3.31918,6.85608 4.50781,11.99919 4.51024,19.51543 0.003,9.26673 -2.20888,16.41165 -7.60003,24.55004 -6.70764,10.12575 -18.61595,17.59436 -31.76737,19.92376 -4.36338,0.77286 -12.94248,0.6449 -17.34584,-0.2587 z"
           style="opacity:0.403;fill:#d5f6ff;fill-opacity:0.93908632;stroke-width:0.54950428" />
      </g>
      <path
         style="opacity:1;fill:#ff6600;fill-opacity:1;stroke-width:0.9375"
         d="m 285.52439,345.22944 21.43066,1.09901 8.24257,70.88605 H 274.5343 c -1.81367,-29.40238 2.54455,-45.01837 10.99009,-71.98506 z"
         id="rect4767"
         inkscape:connector-curvature="0"
         sodipodi:nodetypes="ccccc" />
      <path
         sodipodi:nodetypes="ccccc"
         inkscape:connector-curvature="0"
         id="path4776"
         d="m 376.33551,345.22945 -21.43066,1.09901 -8.24257,70.88605 h 40.66332 c 1.81367,-29.40238 -2.54455,-45.01837 -10.99009,-71.98506 z"
         style="opacity:1;fill:#ff6600;fill-opacity:1;stroke-width:0.9375" />
    </g>
  </g>
</svg>
