<?xml version="1.0" encoding="UTF-8" standalone="no"?>
<!-- Created with Inkscape (http://www.inkscape.org/) -->

<svg
   xmlns:dc="http://purl.org/dc/elements/1.1/"
   xmlns:cc="http://creativecommons.org/ns#"
   xmlns:rdf="http://www.w3.org/1999/02/22-rdf-syntax-ns#"
   xmlns:svg="http://www.w3.org/2000/svg"
   xmlns="http://www.w3.org/2000/svg"
   xmlns:sodipodi="http://sodipodi.sourceforge.net/DTD/sodipodi-0.dtd"
   xmlns:inkscape="http://www.inkscape.org/namespaces/inkscape"
   width="210mm"
   height="297mm"
   viewBox="0 0 744.09448819 1052.3622047"
   id="svg4366"
   version="1.1"
   inkscape:version="0.91 r13725"
   sodipodi:docname="PlayerDraft0.svg">
  <defs
     id="defs4368" />
  <sodipodi:namedview
     id="base"
     pagecolor="#ffffff"
     bordercolor="#666666"
     borderopacity="1.0"
     inkscape:pageopacity="0.0"
     inkscape:pageshadow="2"
     inkscape:zoom="2.8"
     inkscape:cx="371.42396"
     inkscape:cy="820.18511"
     inkscape:document-units="px"
     inkscape:current-layer="layer1"
     showgrid="false"
     inkscape:window-width="1375"
     inkscape:window-height="876"
     inkscape:window-x="65"
     inkscape:window-y="24"
     inkscape:window-maximized="1" />
  <metadata
     id="metadata4371">
    <rdf:RDF>
      <cc:Work
         rdf:about="">
        <dc:format>image/svg+xml</dc:format>
        <dc:type
           rdf:resource="http://purl.org/dc/dcmitype/StillImage" />
        <dc:title />
      </cc:Work>
    </rdf:RDF>
  </metadata>
  <g
     inkscape:label="Layer 1"
     inkscape:groupmode="layer"
     id="layer1">
    <path
       style="opacity:0.00000002;fill:#008080;fill-opacity:1;fill-rule:nonzero;stroke:none;stroke-width:2;stroke-linejoin:bevel;stroke-miterlimit:4;stroke-dasharray:none;stroke-opacity:1"
       d="m 310.11909,181.6833 c -8.01683,-1.05417 -11.28288,-5.49165 -10.70618,-14.54617 0.47848,-7.51249 3.35803,-13.72784 8.89403,-19.19729 11.55833,-11.41939 30.19012,-11.30984 41.71579,0.24528 6.07673,6.09225 8.57354,12.12762 8.57171,20.71978 -0.001,4.76351 -0.16068,5.8559 -1.11959,7.65988 -1.26777,2.38502 -3.00486,3.76907 -5.9395,4.73235 -2.31875,0.76113 -36.16478,1.07671 -41.41626,0.38617 z"
       id="path4460"
       inkscape:connector-curvature="0" />
    <path
       id="path5015"
       style="opacity:1;fill:#808080;fill-opacity:1;fill-rule:nonzero;stroke:none;stroke-width:2;stroke-linejoin:bevel;stroke-miterlimit:4;stroke-dasharray:none;stroke-opacity:1"
       d="M 368.70569,217.9762 A 34.345188,34.850262 0 0 1 334.3605,252.82646 34.345188,34.850262 0 0 1 300.01532,217.9762 34.345188,34.850262 0 0 1 334.3605,183.12593 34.345188,34.850262 0 0 1 368.70569,217.9762 Z" />
    <g
       id="g5234">
      <g
         id="g5227">
        <path
           style="opacity:1;fill:#1a1a1a;fill-opacity:1;fill-rule:nonzero;stroke:none;stroke-width:2;stroke-linejoin:bevel;stroke-miterlimit:4;stroke-dasharray:none;stroke-opacity:1"
           d="m 324.76405,240.19956 c 0,3.34736 -3.16582,2.52539 -7.07107,2.52539 -3.90525,0 -8.08123,-6.2491 -8.08122,-9.59645 0,-3.34735 4.17598,-2.52538 8.08122,-2.52538 3.90524,0 7.07107,6.24909 7.07107,9.59644 z"
           id="path5017"
           inkscape:connector-curvature="0"
           sodipodi:nodetypes="sssss" />
        <path
           style="opacity:1;fill:#1a1a1a;fill-opacity:1;fill-rule:nonzero;stroke:none;stroke-width:2;stroke-linejoin:bevel;stroke-miterlimit:4;stroke-dasharray:none;stroke-opacity:1"
           d="m 343.95694,239.69447 c 0,3.34736 3.16582,2.52539 7.07107,2.52539 3.90525,0 8.08123,-6.2491 8.08122,-9.59645 0,-3.34735 -4.17598,-2.52538 -8.08122,-2.52538 -3.90524,0 -7.07107,6.24909 -7.07107,9.59644 z"
           id="path5017-4"
           inkscape:connector-curvature="0"
           sodipodi:nodetypes="sssss" />
        <path
           style="opacity:1;fill:#800000;fill-opacity:1;fill-rule:nonzero;stroke:none;stroke-width:2;stroke-linejoin:bevel;stroke-miterlimit:4;stroke-dasharray:none;stroke-opacity:1"
           inkscape:transform-center-x="2.6652164"
           inkscape:transform-center-y="-0.51259123"
           d="m 323.57532,216.77433 -7.65998,-9.74996 -2.40405,3.1176 3.89799,7.24182 -5.38726,-4.50499 -2.70639,6.3787 1.05843,-6.94329 -1.84326,-1.11304 2.63648,-0.88346 1.46996,-4.34335 -3.82368,-11.2883 2.77014,-2.84546 3.54614,10.51306 z"
           id="path5043"
           inkscape:connector-curvature="0"
           sodipodi:nodetypes="cccccccccccccc" />
      </g>
    </g>
    <path
       style="opacity:1;fill:#483737;fill-opacity:1;fill-rule:nonzero;stroke:none;stroke-width:2;stroke-linejoin:bevel;stroke-miterlimit:4;stroke-dasharray:none;stroke-opacity:1"
       d="m 284.01338,260.57648 23.12948,-7.14286 25.80807,7.14286 c 0.23597,0.0653 0.44194,0.1971 0.44194,0.44194 l 0,49.11612 c 0,0.24483 -0.1971,0.44194 -0.44194,0.44194 l -48.93755,0 c -0.24483,0 -0.44194,-0.19711 -0.44194,-0.44194 l 0,-49.11612 c 0,-0.24484 0.19711,-0.44194 0.44194,-0.44194 z"
       id="rect5046"
       inkscape:connector-curvature="0"
       sodipodi:nodetypes="scssssssss" />
    <rect
       style="opacity:1;fill:#aa4400;fill-opacity:1;fill-rule:nonzero;stroke:none;stroke-width:2;stroke-linejoin:bevel;stroke-miterlimit:4;stroke-dasharray:none;stroke-opacity:1"
       id="rect5049"
       width="0.71428573"
       height="51.607143"
       x="305.89285"
       y="257.18362"
       ry="0.35714287" />
    <ellipse
       style="opacity:1;fill:#aa4400;fill-opacity:1;fill-rule:nonzero;stroke:none;stroke-width:2;stroke-linejoin:bevel;stroke-miterlimit:4;stroke-dasharray:none;stroke-opacity:1"
       id="path5051-4"
       cx="307.04538"
       cy="260.89664"
       rx="1.0714285"
       ry="0.98214287" />
    <ellipse
       style="opacity:1;fill:#aa4400;fill-opacity:1;fill-rule:nonzero;stroke:none;stroke-width:2;stroke-linejoin:bevel;stroke-miterlimit:4;stroke-dasharray:none;stroke-opacity:1"
       id="path5051-4-7"
       cx="307.08685"
       cy="266.16449"
       rx="1.0714285"
       ry="0.98214287"
       inkscape:transform-center-x="-0.71428572"
       inkscape:transform-center-y="-0.35714286" />
    <ellipse
       style="opacity:1;fill:#aa4400;fill-opacity:1;fill-rule:nonzero;stroke:none;stroke-width:2;stroke-linejoin:bevel;stroke-miterlimit:4;stroke-dasharray:none;stroke-opacity:1"
       id="path5051-4-6"
       cx="306.96011"
       cy="271.82996"
       rx="1.0714285"
       ry="0.98214287" />
    <ellipse
       style="opacity:1;fill:#aa4400;fill-opacity:1;fill-rule:nonzero;stroke:none;stroke-width:2;stroke-linejoin:bevel;stroke-miterlimit:4;stroke-dasharray:none;stroke-opacity:1"
       id="path5051-4-3"
       cx="307.08636"
       cy="276.88071"
       rx="1.0714285"
       ry="0.98214287"
       inkscape:transform-center-x="-1.1364216"
       inkscape:transform-center-y="-0.88388348" />
    <ellipse
       style="opacity:1;fill:#aa4400;fill-opacity:1;fill-rule:nonzero;stroke:none;stroke-width:2;stroke-linejoin:bevel;stroke-miterlimit:4;stroke-dasharray:none;stroke-opacity:1"
       id="path5051-4-3-1"
       cx="307.02322"
       cy="281.67896"
       rx="1.0714285"
       ry="0.98214287"
       inkscape:transform-center-x="-1.1364216"
       inkscape:transform-center-y="-0.88388348" />
    <ellipse
       style="opacity:1;fill:#aa4400;fill-opacity:1;fill-rule:nonzero;stroke:none;stroke-width:2;stroke-linejoin:bevel;stroke-miterlimit:4;stroke-dasharray:none;stroke-opacity:1"
       id="path5051-4-3-7"
       cx="307.21265"
       cy="286.72974"
       rx="1.0714285"
       ry="0.98214287"
       inkscape:transform-center-x="-1.1364216"
       inkscape:transform-center-y="-0.88388348" />
    <ellipse
       style="opacity:1;fill:#aa4400;fill-opacity:1;fill-rule:nonzero;stroke:none;stroke-width:2;stroke-linejoin:bevel;stroke-miterlimit:4;stroke-dasharray:none;stroke-opacity:1"
       id="path5051-4-3-5"
       cx="307.02325"
       cy="291.33856"
       rx="1.0714285"
       ry="0.98214287"
       inkscape:transform-center-x="-1.1364216"
       inkscape:transform-center-y="-0.88388348" />
    <ellipse
       style="opacity:1;fill:#aa4400;fill-opacity:1;fill-rule:nonzero;stroke:none;stroke-width:2;stroke-linejoin:bevel;stroke-miterlimit:4;stroke-dasharray:none;stroke-opacity:1"
       id="path5051-4-3-9"
       cx="306.96011"
       cy="295.75797"
       rx="1.0714285"
       ry="0.98214287"
       inkscape:transform-center-x="-1.1364216"
       inkscape:transform-center-y="-0.88388348" />
    <path
       style="opacity:1;fill:#aa4400;fill-opacity:1;fill-rule:nonzero;stroke:none;stroke-width:2;stroke-linejoin:bevel;stroke-miterlimit:4;stroke-dasharray:none;stroke-opacity:1"
       inkscape:transform-center-x="0.21508619"
       inkscape:transform-center-y="-3.0203169"
       d="m 329.95536,310.53186 -41.23695,-0.034 17.4739,-13.057 z"
       id="path5224"
       inkscape:connector-curvature="0"
       sodipodi:nodetypes="cccc" />
  </g>
</svg>
